<?xml version="1.0" encoding="UTF-8"?>
<svg xmlns="http://www.w3.org/2000/svg" version="1.1" width="300" height="300" viewBox="0 0 300 300"><rect x="0" y="0" width="300" height="300" fill="#ffffff"/><g transform="scale(10.345)"><g transform="translate(0,0)"><path fill-rule="evenodd" d="M10 0L10 2L11 2L11 0ZM12 0L12 1L14 1L14 0ZM16 0L16 1L15 1L15 2L14 2L14 3L13 3L13 2L12 2L12 4L16 4L16 5L15 5L15 6L14 6L14 5L11 5L11 6L10 6L10 4L11 4L11 3L8 3L8 4L9 4L9 5L8 5L8 7L9 7L9 8L6 8L6 9L5 9L5 8L0 8L0 9L3 9L3 10L1 10L1 11L2 11L2 12L1 12L1 13L0 13L0 14L1 14L1 13L3 13L3 14L2 14L2 15L1 15L1 16L0 16L0 21L1 21L1 17L2 17L2 20L3 20L3 21L7 21L7 20L5 20L5 18L6 18L6 19L7 19L7 18L8 18L8 17L7 17L7 16L9 16L9 18L10 18L10 20L8 20L8 23L9 23L9 24L8 24L8 29L10 29L10 28L9 28L9 27L10 27L10 26L9 26L9 24L10 24L10 23L11 23L11 22L12 22L12 24L13 24L13 25L11 25L11 26L13 26L13 27L12 27L12 28L13 28L13 29L14 29L14 28L15 28L15 29L16 29L16 28L17 28L17 29L18 29L18 28L17 28L17 26L14 26L14 24L15 24L15 23L16 23L16 24L17 24L17 25L18 25L18 26L19 26L19 25L18 25L18 24L19 24L19 23L20 23L20 26L21 26L21 27L19 27L19 28L22 28L22 29L23 29L23 28L22 28L22 27L24 27L24 28L25 28L25 29L27 29L27 28L28 28L28 26L29 26L29 23L27 23L27 22L29 22L29 20L28 20L28 19L27 19L27 16L28 16L28 15L27 15L27 12L28 12L28 11L27 11L27 12L25 12L25 9L26 9L26 8L25 8L25 9L24 9L24 8L23 8L23 9L22 9L22 8L21 8L21 6L20 6L20 7L19 7L19 6L18 6L18 5L21 5L21 4L18 4L18 3L21 3L21 0L19 0L19 1L17 1L17 0ZM8 1L8 2L9 2L9 1ZM16 1L16 2L17 2L17 3L18 3L18 2L17 2L17 1ZM19 1L19 2L20 2L20 1ZM9 6L9 7L10 7L10 6ZM11 6L11 7L12 7L12 9L11 9L11 8L10 8L10 9L9 9L9 11L8 11L8 10L7 10L7 9L6 9L6 10L7 10L7 11L4 11L4 10L5 10L5 9L4 9L4 10L3 10L3 11L4 11L4 12L7 12L7 13L6 13L6 14L7 14L7 15L6 15L6 16L5 16L5 14L4 14L4 15L3 15L3 17L4 17L4 16L5 16L5 17L6 17L6 18L7 18L7 17L6 17L6 16L7 16L7 15L11 15L11 14L13 14L13 15L12 15L12 16L14 16L14 14L16 14L16 16L18 16L18 17L17 17L17 18L18 18L18 19L16 19L16 21L15 21L15 22L14 22L14 21L13 21L13 20L15 20L15 19L14 19L14 17L13 17L13 20L11 20L11 21L13 21L13 22L14 22L14 23L13 23L13 24L14 24L14 23L15 23L15 22L16 22L16 23L17 23L17 24L18 24L18 23L17 23L17 22L19 22L19 21L20 21L20 20L21 20L21 19L25 19L25 21L26 21L26 20L27 20L27 19L25 19L25 18L24 18L24 17L26 17L26 16L27 16L27 15L26 15L26 13L25 13L25 12L22 12L22 11L24 11L24 9L23 9L23 10L22 10L22 9L21 9L21 8L20 8L20 9L21 9L21 10L19 10L19 11L17 11L17 8L18 8L18 9L19 9L19 7L18 7L18 6L17 6L17 8L16 8L16 6L15 6L15 9L14 9L14 11L13 11L13 10L12 10L12 9L13 9L13 8L14 8L14 6L13 6L13 7L12 7L12 6ZM27 8L27 9L28 9L28 10L29 10L29 9L28 9L28 8ZM10 9L10 11L11 11L11 9ZM15 10L15 11L14 11L14 12L13 12L13 11L12 11L12 13L16 13L16 14L20 14L20 15L22 15L22 16L23 16L23 17L21 17L21 16L19 16L19 17L18 17L18 18L20 18L20 17L21 17L21 18L23 18L23 17L24 17L24 16L25 16L25 15L22 15L22 14L25 14L25 13L21 13L21 14L20 14L20 12L21 12L21 11L22 11L22 10L21 10L21 11L19 11L19 12L16 12L16 10ZM7 11L7 12L8 12L8 11ZM9 12L9 13L7 13L7 14L10 14L10 13L11 13L11 12ZM28 13L28 14L29 14L29 13ZM10 17L10 18L11 18L11 19L12 19L12 17ZM15 17L15 18L16 18L16 17ZM28 17L28 18L29 18L29 17ZM3 19L3 20L4 20L4 19ZM18 19L18 20L17 20L17 21L16 21L16 22L17 22L17 21L18 21L18 20L19 20L19 19ZM9 21L9 23L10 23L10 21ZM21 21L21 24L24 24L24 21ZM22 22L22 23L23 23L23 22ZM25 23L25 24L27 24L27 25L21 25L21 26L25 26L25 28L27 28L27 25L28 25L28 24L27 24L27 23ZM13 27L13 28L14 28L14 27ZM0 0L0 7L7 7L7 0ZM1 1L1 6L6 6L6 1ZM2 2L2 5L5 5L5 2ZM22 0L22 7L29 7L29 0ZM23 1L23 6L28 6L28 1ZM24 2L24 5L27 5L27 2ZM0 22L0 29L7 29L7 22ZM1 23L1 28L6 28L6 23ZM2 24L2 27L5 27L5 24Z" fill="#000000"/></g></g></svg>
