<?xml version="1.0" encoding="UTF-8"?>
<svg xmlns="http://www.w3.org/2000/svg" version="1.1" width="300" height="300" viewBox="0 0 300 300"><rect x="0" y="0" width="300" height="300" fill="#ffffff"/><g transform="scale(10.345)"><g transform="translate(0,0)"><path fill-rule="evenodd" d="M9 0L9 1L8 1L8 2L9 2L9 3L8 3L8 4L10 4L10 7L11 7L11 4L12 4L12 5L13 5L13 6L12 6L12 9L13 9L13 10L11 10L11 11L10 11L10 9L11 9L11 8L6 8L6 9L9 9L9 10L5 10L5 11L7 11L7 12L6 12L6 13L5 13L5 14L6 14L6 15L5 15L5 16L4 16L4 15L3 15L3 14L4 14L4 10L3 10L3 9L5 9L5 8L0 8L0 9L2 9L2 10L1 10L1 11L0 11L0 12L2 12L2 10L3 10L3 14L2 14L2 13L0 13L0 14L1 14L1 15L0 15L0 21L1 21L1 18L2 18L2 20L6 20L6 21L7 21L7 20L6 20L6 19L9 19L9 17L10 17L10 16L11 16L11 13L12 13L12 14L13 14L13 13L16 13L16 14L14 14L14 16L13 16L13 15L12 15L12 17L14 17L14 19L15 19L15 20L12 20L12 19L13 19L13 18L11 18L11 19L10 19L10 20L11 20L11 21L10 21L10 23L9 23L9 20L8 20L8 23L9 23L9 24L8 24L8 29L9 29L9 28L10 28L10 27L9 27L9 26L10 26L10 25L11 25L11 26L12 26L12 28L11 28L11 29L12 29L12 28L13 28L13 29L14 29L14 28L15 28L15 29L16 29L16 28L17 28L17 29L18 29L18 28L17 28L17 26L14 26L14 24L15 24L15 23L16 23L16 24L17 24L17 25L18 25L18 26L19 26L19 28L21 28L21 29L27 29L27 28L28 28L28 26L29 26L29 24L28 24L28 25L27 25L27 24L25 24L25 23L27 23L27 22L29 22L29 20L28 20L28 19L27 19L27 16L28 16L28 15L27 15L27 12L28 12L28 11L27 11L27 12L25 12L25 9L26 9L26 8L25 8L25 9L24 9L24 8L23 8L23 9L22 9L22 8L21 8L21 6L20 6L20 7L19 7L19 6L18 6L18 5L21 5L21 4L18 4L18 3L21 3L21 0L19 0L19 1L17 1L17 0L16 0L16 1L15 1L15 2L14 2L14 3L13 3L13 4L12 4L12 2L13 2L13 1L14 1L14 0L13 0L13 1L11 1L11 2L10 2L10 0ZM16 1L16 2L17 2L17 3L18 3L18 2L17 2L17 1ZM19 1L19 2L20 2L20 1ZM10 3L10 4L11 4L11 3ZM13 4L13 5L14 5L14 6L13 6L13 8L14 8L14 6L15 6L15 9L14 9L14 11L12 11L12 13L13 13L13 12L14 12L14 11L15 11L15 10L16 10L16 12L19 12L19 11L21 11L21 12L20 12L20 14L16 14L16 16L18 16L18 17L17 17L17 18L18 18L18 19L16 19L16 21L15 21L15 22L14 22L14 21L13 21L13 22L14 22L14 23L13 23L13 24L12 24L12 21L11 21L11 24L12 24L12 25L13 25L13 24L14 24L14 23L15 23L15 22L16 22L16 23L17 23L17 24L18 24L18 25L20 25L20 27L21 27L21 26L23 26L23 27L22 27L22 28L24 28L24 26L26 26L26 27L25 27L25 28L27 28L27 26L26 26L26 25L24 25L24 26L23 26L23 25L20 25L20 24L18 24L18 23L17 23L17 22L20 22L20 20L22 20L22 19L25 19L25 21L26 21L26 20L27 20L27 19L25 19L25 18L24 18L24 17L26 17L26 16L27 16L27 15L26 15L26 13L25 13L25 12L24 12L24 11L21 11L21 10L22 10L22 9L21 9L21 8L20 8L20 9L21 9L21 10L19 10L19 11L17 11L17 8L18 8L18 9L19 9L19 7L18 7L18 6L17 6L17 8L16 8L16 6L15 6L15 5L16 5L16 4ZM8 5L8 7L9 7L9 5ZM27 8L27 9L28 9L28 10L29 10L29 9L28 9L28 8ZM23 9L23 10L24 10L24 9ZM8 11L8 12L7 12L7 13L6 13L6 14L7 14L7 15L6 15L6 16L5 16L5 18L8 18L8 17L6 17L6 16L9 16L9 15L10 15L10 14L9 14L9 15L8 15L8 13L9 13L9 11ZM10 12L10 13L11 13L11 12ZM23 12L23 13L21 13L21 14L20 14L20 15L21 15L21 14L23 14L23 13L24 13L24 15L23 15L23 17L22 17L22 16L20 16L20 17L18 17L18 18L20 18L20 17L22 17L22 18L23 18L23 17L24 17L24 16L25 16L25 13L24 13L24 12ZM28 13L28 14L29 14L29 13ZM1 15L1 17L2 17L2 18L3 18L3 17L4 17L4 16L3 16L3 15ZM15 17L15 18L16 18L16 17ZM28 17L28 18L29 18L29 17ZM18 19L18 20L17 20L17 21L16 21L16 22L17 22L17 21L18 21L18 20L20 20L20 19ZM21 21L21 24L24 24L24 21ZM22 22L22 23L23 23L23 22ZM9 24L9 25L10 25L10 24ZM13 27L13 28L14 28L14 27ZM0 0L0 7L7 7L7 0ZM1 1L1 6L6 6L6 1ZM2 2L2 5L5 5L5 2ZM22 0L22 7L29 7L29 0ZM23 1L23 6L28 6L28 1ZM24 2L24 5L27 5L27 2ZM0 22L0 29L7 29L7 22ZM1 23L1 28L6 28L6 23ZM2 24L2 27L5 27L5 24Z" fill="#000000"/></g></g></svg>
