<?xml version="1.0" encoding="UTF-8"?>
<svg xmlns="http://www.w3.org/2000/svg" version="1.1" width="300" height="300" viewBox="0 0 300 300"><rect x="0" y="0" width="300" height="300" fill="#ffffff"/><g transform="scale(10.345)"><g transform="translate(0,0)"><path fill-rule="evenodd" d="M9 0L9 1L11 1L11 2L9 2L9 3L8 3L8 5L9 5L9 6L8 6L8 7L9 7L9 9L8 9L8 8L5 8L5 9L4 9L4 10L3 10L3 9L2 9L2 8L0 8L0 10L1 10L1 9L2 9L2 10L3 10L3 11L4 11L4 12L3 12L3 13L4 13L4 12L6 12L6 13L8 13L8 14L6 14L6 15L5 15L5 18L4 18L4 17L3 17L3 18L2 18L2 14L1 14L1 13L2 13L2 12L1 12L1 11L0 11L0 12L1 12L1 13L0 13L0 14L1 14L1 17L0 17L0 21L1 21L1 19L3 19L3 20L2 20L2 21L3 21L3 20L4 20L4 21L5 21L5 20L6 20L6 21L8 21L8 24L9 24L9 25L11 25L11 26L13 26L13 27L12 27L12 28L10 28L10 26L9 26L9 27L8 27L8 29L9 29L9 28L10 28L10 29L12 29L12 28L13 28L13 29L14 29L14 28L13 28L13 27L17 27L17 26L16 26L16 25L17 25L17 23L18 23L18 24L19 24L19 25L18 25L18 26L19 26L19 28L20 28L20 25L21 25L21 27L22 27L22 28L21 28L21 29L27 29L27 27L28 27L28 28L29 28L29 27L28 27L28 26L29 26L29 25L28 25L28 26L27 26L27 25L26 25L26 26L24 26L24 25L25 25L25 23L27 23L27 24L28 24L28 23L27 23L27 22L26 22L26 21L29 21L29 20L26 20L26 21L25 21L25 19L24 19L24 18L28 18L28 19L29 19L29 17L27 17L27 14L29 14L29 12L28 12L28 13L26 13L26 17L24 17L24 16L25 16L25 13L24 13L24 15L21 15L21 14L20 14L20 13L21 13L21 12L22 12L22 14L23 14L23 12L22 12L22 11L24 11L24 12L25 12L25 9L26 9L26 10L28 10L28 9L26 9L26 8L24 8L24 10L22 10L22 9L21 9L21 11L19 11L19 10L20 10L20 8L21 8L21 6L20 6L20 7L19 7L19 6L18 6L18 5L21 5L21 1L20 1L20 2L19 2L19 1L18 1L18 0L17 0L17 2L14 2L14 3L13 3L13 4L12 4L12 2L13 2L13 1L12 1L12 0ZM14 0L14 1L15 1L15 0ZM17 2L17 3L14 3L14 4L13 4L13 5L12 5L12 4L11 4L11 7L10 7L10 6L9 6L9 7L10 7L10 8L11 8L11 10L10 10L10 9L9 9L9 10L8 10L8 9L6 9L6 10L7 10L7 11L6 11L6 12L8 12L8 13L9 13L9 12L10 12L10 11L11 11L11 10L13 10L13 9L12 9L12 6L13 6L13 8L14 8L14 6L15 6L15 7L16 7L16 4L17 4L17 3L18 3L18 4L20 4L20 3L18 3L18 2ZM9 3L9 5L10 5L10 3ZM13 5L13 6L14 6L14 5ZM17 6L17 8L15 8L15 9L17 9L17 8L18 8L18 9L19 9L19 7L18 7L18 6ZM9 10L9 11L8 11L8 12L9 12L9 11L10 11L10 10ZM14 10L14 11L12 11L12 12L11 12L11 14L10 14L10 16L9 16L9 17L8 17L8 18L7 18L7 17L6 17L6 18L5 18L5 19L6 19L6 20L7 20L7 19L9 19L9 21L11 21L11 23L10 23L10 22L9 22L9 24L11 24L11 23L13 23L13 24L12 24L12 25L14 25L14 26L15 26L15 25L16 25L16 24L15 24L15 25L14 25L14 23L15 23L15 21L13 21L13 22L12 22L12 21L11 21L11 19L12 19L12 20L16 20L16 23L17 23L17 22L20 22L20 20L21 20L21 19L22 19L22 18L21 18L21 17L20 17L20 14L16 14L16 15L14 15L14 14L15 14L15 12L16 12L16 13L18 13L18 12L19 12L19 13L20 13L20 12L19 12L19 11L17 11L17 10L16 10L16 11L15 11L15 10ZM14 11L14 12L15 12L15 11ZM12 13L12 14L13 14L13 13ZM6 15L6 16L7 16L7 15ZM12 15L12 17L14 17L14 18L12 18L12 19L14 19L14 18L15 18L15 19L16 19L16 18L17 18L17 17L18 17L18 18L19 18L19 19L18 19L18 20L17 20L17 21L18 21L18 20L20 20L20 19L21 19L21 18L20 18L20 17L18 17L18 16L17 16L17 15L16 15L16 16L13 16L13 15ZM28 15L28 16L29 16L29 15ZM22 16L22 17L23 17L23 18L24 18L24 17L23 17L23 16ZM3 18L3 19L4 19L4 18ZM6 18L6 19L7 19L7 18ZM21 21L21 24L24 24L24 21ZM13 22L13 23L14 23L14 22ZM22 22L22 23L23 23L23 22ZM22 25L22 26L23 26L23 28L24 28L24 26L23 26L23 25ZM26 26L26 27L25 27L25 28L26 28L26 27L27 27L27 26ZM15 28L15 29L16 29L16 28ZM17 28L17 29L18 29L18 28ZM0 0L0 7L7 7L7 0ZM1 1L1 6L6 6L6 1ZM2 2L2 5L5 5L5 2ZM22 0L22 7L29 7L29 0ZM23 1L23 6L28 6L28 1ZM24 2L24 5L27 5L27 2ZM0 22L0 29L7 29L7 22ZM1 23L1 28L6 28L6 23ZM2 24L2 27L5 27L5 24Z" fill="#000000"/></g></g></svg>
