<?xml version="1.0" encoding="UTF-8"?>
<svg xmlns="http://www.w3.org/2000/svg" version="1.1" width="300" height="300" viewBox="0 0 300 300"><rect x="0" y="0" width="300" height="300" fill="#ffffff"/><g transform="scale(10.345)"><g transform="translate(0,0)"><path fill-rule="evenodd" d="M10 0L10 1L8 1L8 3L9 3L9 4L8 4L8 8L6 8L6 9L8 9L8 10L5 10L5 9L4 9L4 8L3 8L3 9L2 9L2 8L0 8L0 9L1 9L1 10L0 10L0 14L1 14L1 11L3 11L3 12L2 12L2 13L3 13L3 14L2 14L2 15L1 15L1 17L2 17L2 21L7 21L7 20L9 20L9 21L8 21L8 23L10 23L10 24L9 24L9 25L8 25L8 26L9 26L9 27L8 27L8 29L9 29L9 27L10 27L10 28L11 28L11 29L12 29L12 27L13 27L13 28L14 28L14 29L15 29L15 28L17 28L17 29L18 29L18 28L19 28L19 29L21 29L21 27L22 27L22 26L24 26L24 29L25 29L25 28L26 28L26 27L25 27L25 25L26 25L26 24L27 24L27 26L28 26L28 27L27 27L27 29L28 29L28 27L29 27L29 26L28 26L28 24L27 24L27 23L28 23L28 22L29 22L29 21L27 21L27 20L29 20L29 17L28 17L28 15L29 15L29 14L27 14L27 13L29 13L29 12L28 12L28 10L29 10L29 9L28 9L28 8L26 8L26 9L25 9L25 8L22 8L22 9L20 9L20 8L21 8L21 5L19 5L19 4L20 4L20 3L21 3L21 1L20 1L20 0L19 0L19 1L20 1L20 2L17 2L17 1L16 1L16 0L13 0L13 1L15 1L15 2L14 2L14 4L13 4L13 3L12 3L12 7L11 7L11 4L10 4L10 3L9 3L9 2L11 2L11 0ZM15 2L15 3L17 3L17 4L18 4L18 3L17 3L17 2ZM9 5L9 8L8 8L8 9L10 9L10 10L8 10L8 11L11 11L11 8L10 8L10 5ZM13 5L13 7L12 7L12 8L14 8L14 5ZM15 6L15 8L17 8L17 9L13 9L13 11L14 11L14 13L13 13L13 12L12 12L12 16L11 16L11 18L9 18L9 17L10 17L10 14L11 14L11 13L10 13L10 12L9 12L9 14L8 14L8 12L7 12L7 11L6 11L6 12L5 12L5 13L4 13L4 14L3 14L3 15L2 15L2 17L4 17L4 18L3 18L3 19L4 19L4 20L7 20L7 19L9 19L9 20L10 20L10 21L9 21L9 22L11 22L11 23L12 23L12 24L10 24L10 25L9 25L9 26L10 26L10 25L11 25L11 26L13 26L13 23L14 23L14 24L16 24L16 23L17 23L17 24L18 24L18 27L19 27L19 28L20 28L20 27L21 27L21 25L20 25L20 22L19 22L19 23L17 23L17 22L16 22L16 20L15 20L15 19L17 19L17 18L18 18L18 20L17 20L17 21L20 21L20 20L21 20L21 18L20 18L20 17L21 17L21 15L20 15L20 14L21 14L21 13L20 13L20 14L19 14L19 13L17 13L17 12L18 12L18 11L17 11L17 10L20 10L20 9L19 9L19 8L17 8L17 7L18 7L18 6L17 6L17 7L16 7L16 6ZM19 6L19 7L20 7L20 6ZM3 9L3 10L4 10L4 11L5 11L5 10L4 10L4 9ZM23 9L23 10L21 10L21 11L19 11L19 12L21 12L21 11L23 11L23 13L22 13L22 14L25 14L25 15L24 15L24 17L23 17L23 15L22 15L22 17L23 17L23 19L22 19L22 20L25 20L25 23L27 23L27 22L26 22L26 20L27 20L27 18L28 18L28 17L27 17L27 15L26 15L26 13L27 13L27 12L26 12L26 13L25 13L25 9ZM26 9L26 10L28 10L28 9ZM14 10L14 11L15 11L15 12L16 12L16 11L15 11L15 10ZM6 12L6 13L7 13L7 12ZM4 14L4 15L5 15L5 16L4 16L4 17L5 17L5 16L6 16L6 17L7 17L7 18L4 18L4 19L7 19L7 18L8 18L8 16L6 16L6 15L7 15L7 14L6 14L6 15L5 15L5 14ZM14 14L14 15L13 15L13 16L12 16L12 18L11 18L11 19L12 19L12 21L11 21L11 22L12 22L12 23L13 23L13 22L14 22L14 23L15 23L15 20L13 20L13 18L14 18L14 17L13 17L13 16L16 16L16 18L17 18L17 17L18 17L18 16L19 16L19 17L20 17L20 15L18 15L18 14L16 14L16 15L15 15L15 14ZM16 15L16 16L17 16L17 15ZM25 15L25 17L26 17L26 15ZM0 18L0 19L1 19L1 18ZM25 18L25 19L26 19L26 18ZM0 20L0 21L1 21L1 20ZM12 21L12 22L13 22L13 21ZM21 21L21 24L24 24L24 21ZM22 22L22 23L23 23L23 22ZM14 25L14 26L15 26L15 27L17 27L17 26L16 26L16 25ZM19 26L19 27L20 27L20 26ZM0 0L0 7L7 7L7 0ZM1 1L1 6L6 6L6 1ZM2 2L2 5L5 5L5 2ZM22 0L22 7L29 7L29 0ZM23 1L23 6L28 6L28 1ZM24 2L24 5L27 5L27 2ZM0 22L0 29L7 29L7 22ZM1 23L1 28L6 28L6 23ZM2 24L2 27L5 27L5 24Z" fill="#000000"/></g></g></svg>
