<?xml version="1.0" encoding="UTF-8"?>
<svg xmlns="http://www.w3.org/2000/svg" version="1.1" width="300" height="300" viewBox="0 0 300 300"><rect x="0" y="0" width="300" height="300" fill="#ffffff"/><g transform="scale(10.345)"><g transform="translate(0,0)"><path fill-rule="evenodd" d="M9 0L9 1L8 1L8 3L9 3L9 4L8 4L8 8L6 8L6 9L7 9L7 10L5 10L5 9L4 9L4 8L3 8L3 9L4 9L4 10L3 10L3 12L4 12L4 11L5 11L5 14L6 14L6 15L4 15L4 16L3 16L3 13L1 13L1 12L2 12L2 8L0 8L0 10L1 10L1 11L0 11L0 13L1 13L1 15L0 15L0 16L1 16L1 15L2 15L2 18L3 18L3 19L2 19L2 21L3 21L3 20L4 20L4 21L8 21L8 23L9 23L9 25L8 25L8 26L9 26L9 25L10 25L10 29L11 29L11 28L12 28L12 26L11 26L11 24L10 24L10 23L9 23L9 22L11 22L11 21L12 21L12 20L13 20L13 22L12 22L12 23L13 23L13 28L14 28L14 29L15 29L15 28L17 28L17 29L18 29L18 28L19 28L19 29L23 29L23 28L24 28L24 27L25 27L25 28L26 28L26 27L25 27L25 25L26 25L26 24L27 24L27 26L28 26L28 27L27 27L27 29L28 29L28 27L29 27L29 26L28 26L28 24L29 24L29 23L28 23L28 22L29 22L29 21L27 21L27 20L29 20L29 17L28 17L28 15L29 15L29 14L27 14L27 13L29 13L29 12L28 12L28 10L29 10L29 9L28 9L28 8L26 8L26 9L25 9L25 8L22 8L22 10L24 10L24 11L22 11L22 12L19 12L19 11L21 11L21 9L20 9L20 8L21 8L21 5L19 5L19 4L20 4L20 3L21 3L21 1L20 1L20 0L19 0L19 1L20 1L20 2L17 2L17 1L16 1L16 0L12 0L12 1L11 1L11 2L9 2L9 1L10 1L10 0ZM13 1L13 3L12 3L12 4L9 4L9 5L10 5L10 6L9 6L9 7L10 7L10 8L8 8L8 9L9 9L9 10L10 10L10 8L11 8L11 9L12 9L12 10L11 10L11 11L8 11L8 10L7 10L7 11L6 11L6 12L8 12L8 13L6 13L6 14L8 14L8 15L9 15L9 17L10 17L10 18L7 18L7 17L5 17L5 19L6 19L6 20L8 20L8 21L11 21L11 19L13 19L13 20L15 20L15 23L14 23L14 22L13 22L13 23L14 23L14 24L16 24L16 23L17 23L17 24L18 24L18 27L19 27L19 28L20 28L20 27L22 27L22 28L23 28L23 27L24 27L24 26L22 26L22 25L21 25L21 26L20 26L20 24L19 24L19 23L20 23L20 20L21 20L21 19L20 19L20 17L21 17L21 16L22 16L22 17L23 17L23 19L22 19L22 20L25 20L25 23L27 23L27 22L26 22L26 20L27 20L27 18L28 18L28 17L27 17L27 15L26 15L26 13L27 13L27 12L26 12L26 13L25 13L25 11L24 11L24 12L23 12L23 13L22 13L22 14L21 14L21 13L20 13L20 14L19 14L19 13L17 13L17 12L18 12L18 11L17 11L17 10L20 10L20 9L19 9L19 8L17 8L17 7L18 7L18 6L17 6L17 7L16 7L16 6L15 6L15 8L17 8L17 9L13 9L13 8L14 8L14 5L13 5L13 4L14 4L14 2L15 2L15 3L17 3L17 4L18 4L18 3L17 3L17 2L15 2L15 1ZM11 5L11 6L10 6L10 7L11 7L11 6L12 6L12 8L13 8L13 6L12 6L12 5ZM19 6L19 7L20 7L20 6ZM24 9L24 10L25 10L25 9ZM26 9L26 10L28 10L28 9ZM14 10L14 11L13 11L13 12L12 12L12 13L9 13L9 15L11 15L11 14L12 14L12 16L10 16L10 17L13 17L13 18L14 18L14 17L13 17L13 16L16 16L16 18L17 18L17 19L15 19L15 20L16 20L16 22L17 22L17 23L19 23L19 21L17 21L17 20L18 20L18 18L17 18L17 17L18 17L18 16L20 16L20 15L21 15L21 14L20 14L20 15L18 15L18 14L16 14L16 15L15 15L15 14L14 14L14 15L13 15L13 13L14 13L14 11L15 11L15 12L16 12L16 11L15 11L15 10ZM22 14L22 16L23 16L23 17L24 17L24 16L23 16L23 15L24 15L24 14ZM6 15L6 16L7 16L7 15ZM16 15L16 16L17 16L17 15ZM25 15L25 17L26 17L26 15ZM3 17L3 18L4 18L4 17ZM0 18L0 19L1 19L1 18ZM6 18L6 19L7 19L7 18ZM25 18L25 19L26 19L26 18ZM9 19L9 20L10 20L10 19ZM0 20L0 21L1 21L1 20ZM21 21L21 24L24 24L24 21ZM22 22L22 23L23 23L23 22ZM14 25L14 26L15 26L15 27L17 27L17 26L16 26L16 25ZM8 27L8 29L9 29L9 27ZM0 0L0 7L7 7L7 0ZM1 1L1 6L6 6L6 1ZM2 2L2 5L5 5L5 2ZM22 0L22 7L29 7L29 0ZM23 1L23 6L28 6L28 1ZM24 2L24 5L27 5L27 2ZM0 22L0 29L7 29L7 22ZM1 23L1 28L6 28L6 23ZM2 24L2 27L5 27L5 24Z" fill="#000000"/></g></g></svg>
